<svg xmlns="http://www.w3.org/2000/svg" xmlns:xlink="http://www.w3.org/1999/xlink" width="46" height="46" viewBox="0 0 46 46" fill="none"><rect  transform="matrix(-1, 0, 0, 1, 46, 0)" x="0" y="0" width="46" height="46" rx="20"    fill="url(#linear_fill_6_381_0)" ></rect><path d="M33.3211 12.9305C33.2102 12.7789 32.9952 12.6001 32.5901 12.6001C32.4113 12.6001 32.2098 12.634 31.9768 12.7065L31.9588 12.7132C31.7822 12.7766 13.8908 19.1787 13.8659 19.1877C13.3839 19.3484 12.7254 19.5702 12.6145 20.0726C12.5783 20.2446 12.5918 20.5048 12.8792 20.7719L12.886 20.7786C13.2821 21.1294 15.6899 23.0756 16.3666 23.621C16.4141 23.6595 16.448 23.7115 16.4639 23.7704L17.7311 28.6404C17.7764 28.8169 17.9733 28.9051 18.134 28.8237L20.3947 27.6944C20.5486 27.6175 20.7364 27.6582 20.8451 27.7917C21.972 29.1676 24.9615 32.8224 25.1787 33.0396L25.181 33.042C25.3575 33.214 25.5386 33.2479 25.6608 33.2479C25.9414 33.2479 26.1903 33.0736 26.403 32.7228C26.5343 32.5056 31.1305 20.1405 33.3662 14.1684L33.3731 14.1503C33.5429 13.6139 33.5269 13.2134 33.3211 12.9305L33.3211 12.9305ZM19.0143 27.5541L19.3809 26.6172C19.4556 26.4249 19.709 26.3864 19.8403 26.5448L20.0643 26.8209C20.1684 26.9499 20.1322 27.1423 19.9874 27.2237L19.1659 27.6854C19.0799 27.7351 18.9781 27.6469 19.0143 27.5541ZM19.1184 25.1644L18.4146 26.9273C18.3422 27.1083 18.0819 27.0902 18.0321 26.9024L17.2627 23.9129C17.231 23.7884 17.2853 23.6595 17.3962 23.5938L23.5041 20.0522C23.7666 19.9006 24.0314 20.2446 23.8164 20.4596L19.184 25.067C19.1546 25.0965 19.1342 25.1281 19.1184 25.1644Z"   fill="#121212" ></path><defs><linearGradient id="linear_fill_6_381_0" x1="21.963963963963963" y1="46" x2="21.963963963963963" y2="0" gradientUnits="userSpaceOnUse"><stop offset="0" stop-color="#13A4E6"  /><stop offset="1" stop-color="#02FD99"  /></linearGradient></defs></svg>